<svg width="650" height="650" viewBox="0 0 650 650" fill="none" xmlns="http://www.w3.org/2000/svg">
<rect width="650" height="650" fill="#101447"/>
<g filter="url(#filter0_dd_11_8)">
<path d="M325.56 80C238.59 80 157.54 126.59 113.62 201.69C94.1801 213.51 81.0001 221.78 80.7301 221.92C42.8201 242.58 23.9001 262.29 14.6201 277.9C7.41011 278.03 1.1701 283.37 0.150101 290.73C-1.0099 298.88 4.6801 306.44 12.8401 307.58C21.0101 308.74 28.5501 303.05 29.7101 294.88C30.3101 290.68 29.0701 286.63 26.6301 283.55C40.3601 261.4 69.3201 243.18 87.0601 233.52C90.1101 231.86 261.89 127.81 274.74 130.38C276.89 130.81 280.03 131.97 282.5 137.08C289.3 151.18 226.78 192.95 214.03 200.59C201.82 207.9 191.06 215.71 181.75 224.01C162.02 241.59 148.85 261.32 142.45 282.97C138.6 296.02 127.63 333.6 101.02 342.94C99.1301 338.74 95.3301 335.46 90.4701 334.46C82.4001 332.77 74.4901 337.95 72.8201 346.02C71.2201 353.66 75.7801 361.14 83.1201 363.34C101.49 482.47 203.51 570.77 325.56 570.77C460.86 570.77 570.95 460.69 570.95 325.38C570.95 190.07 460.87 80 325.56 80ZM187.7 236.51C187.12 244.15 185.37 252.9 181.07 258.61C176.54 264.61 167.95 269.71 160.23 273.31C166.33 260.21 175.51 247.92 187.7 236.51ZM325.56 557.54C210.02 557.54 113.46 473.91 96.1601 361.12C97.9201 359.84 99.4201 358.2 100.48 356.25C122.53 348.38 139.19 337.49 154.08 290.08C162.07 287.28 182.01 279.35 191.64 266.56C201.32 253.69 201.46 233.61 201.05 225.28C207.1 220.67 213.7 216.22 220.83 211.95C261.59 187.55 305.55 154.35 294.41 131.32C290.74 123.73 284.83 118.92 277.34 117.43C263.23 114.63 192.72 154.44 140.15 185.73C183.7 128.08 252.41 93.24 325.56 93.24C453.57 93.24 557.71 197.39 557.71 325.39C557.71 453.39 453.57 557.55 325.56 557.55V557.54Z" fill="white"/>
<path d="M247.34 325.38C261.296 325.38 272.61 307.843 272.61 286.21C272.61 264.577 261.296 247.04 247.34 247.04C233.384 247.04 222.07 264.577 222.07 286.21C222.07 307.843 233.384 325.38 247.34 325.38Z" fill="white"/>
<path d="M403.78 325.38C417.736 325.38 429.05 307.843 429.05 286.21C429.05 264.577 417.736 247.04 403.78 247.04C389.824 247.04 378.51 264.577 378.51 286.21C378.51 307.843 389.824 325.38 403.78 325.38Z" fill="white"/>
<path d="M386.18 406.91H264.94C258.48 406.91 253.25 412.14 253.25 418.6C253.25 425.06 258.48 430.29 264.94 430.29H386.18C392.64 430.29 397.87 425.06 397.87 418.6C397.87 412.14 392.64 406.91 386.18 406.91Z" fill="white"/>
<path d="M93.9401 333.61L93.9701 333.58L93.9401 333.6V333.62V333.61Z" fill="white"/>
</g>
<defs>
<filter id="filter0_dd_11_8" x="0" y="80" width="594.95" height="514.77" filterUnits="userSpaceOnUse" color-interpolation-filters="sRGB">
<feFlood flood-opacity="0" result="BackgroundImageFix"/>
<feColorMatrix in="SourceAlpha" type="matrix" values="0 0 0 0 0 0 0 0 0 0 0 0 0 0 0 0 0 0 127 0" result="hardAlpha"/>
<feOffset dx="20" dy="20"/>
<feGaussianBlur stdDeviation="2"/>
<feComposite in2="hardAlpha" operator="out"/>
<feColorMatrix type="matrix" values="0 0 0 0 1 0 0 0 0 0.352941 0 0 0 0 0.494118 0 0 0 1 0"/>
<feBlend mode="normal" in2="BackgroundImageFix" result="effect1_dropShadow_11_8"/>
<feColorMatrix in="SourceAlpha" type="matrix" values="0 0 0 0 0 0 0 0 0 0 0 0 0 0 0 0 0 0 127 0" result="hardAlpha"/>
<feOffset dx="10" dy="10"/>
<feGaussianBlur stdDeviation="2"/>
<feComposite in2="hardAlpha" operator="out"/>
<feColorMatrix type="matrix" values="0 0 0 0 0.0352941 0 0 0 0 0.996078 0 0 0 0 0.972549 0 0 0 1 0"/>
<feBlend mode="normal" in2="effect1_dropShadow_11_8" result="effect2_dropShadow_11_8"/>
<feBlend mode="normal" in="SourceGraphic" in2="effect2_dropShadow_11_8" result="shape"/>
</filter>
</defs>
</svg>
